# xmcd
#
# Track frame offsets:
#	150
#	29282
#	54711
#	60777
#	82622
#	106931
#	129924
#	145984
#	166613
#	192683
#	209494
#	237749
#	267153
#	290602
#
# Disc length: 4122 seconds
#
# Revision: 3
# Processed by: cddbd v1.5.2PL0 Copyright (c) Steve Scherf et al.
# Submitted via: EZCDAudioConverter 2.1.7.1
#
DISCID=c410180e
DTITLE=Tom Tom Club - Tom Tom Club (1981)
DYEAR=1981
DGENRE=
TTITLE0=Wordy Rappinghood
TTITLE1=Genius Of Love
TTITLE2=Tom Tom Theme
TTITLE3=L Elephant
TTITLE4=As Above So Below
TTITLE5=Lorelei
TTITLE6=On On On On...
TTITLE7=Booming And Zooming
TTITLE8=On On On On... [Remix]
TTITLE9=Under The Boardwalk
TTITLE10=Lorelei [Remix]
TTITLE11=Spooks [Single]
TTITLE12=Elephant [Single]
TTITLE13=(You Don't Stop) Wordy Rappinghood [Single]
EXTD=
EXTT0=
EXTT1=
EXTT2=
EXTT3=
EXTT4=
EXTT5=
EXTT6=
EXTT7=
EXTT8=
EXTT9=
EXTT10=
EXTT11=
EXTT12=
EXTT13=
PLAYORDER=
